<svg id="Layer_1" enable-background="new 0 0 512 512" height="512" viewBox="0 0 512 512" width="512" xmlns="http://www.w3.org/2000/svg"><g><path d="m143.517 479.867c-8.284 0-15-6.716-15-15v-241c0-25.739 20.797-47.133 47.133-47.133h32.133c8.284 0 15 6.716 15 15v241c0 8.284-6.716 15-15 15h-32.133c-9.447 0-17.133 7.686-17.133 17.133 0 8.284-6.716 15-15 15z" fill="#6e0a50"/><path d="m368.45 447.733h-160.666c-8.284 0-15-6.716-15-15v-241c0-8.284 6.716-15 15-15h160.666c8.284 0 15 6.716 15 15v241c0 8.285-6.716 15-15 15z" fill="#ffd76e"/><path d="m383.45 432.733v-241c0-8.284-6.716-15-15-15h-112.466v271h112.466c8.284 0 15-6.715 15-15z" fill="#ffaf41"/><path d="m378.958 443.437c0-5.911-4.792-10.703-10.703-10.703h-192.605c-17.745 0-32.133 14.359-32.133 32.133s14.388 32.133 32.133 32.133h192.604c5.911 0 10.703-4.792 10.703-10.703-5.688-5.741-8.818-13.346-8.818-21.43s3.131-15.689 8.819-21.43z" fill="#f5fafa"/><path d="m378.958 486.297c-5.688-5.741-8.818-13.346-8.818-21.43s3.131-15.689 8.818-21.43c0-5.911-4.792-10.703-10.703-10.703h-112.271v64.266h112.271c5.911 0 10.703-4.792 10.703-10.703z" fill="#e1f0f0"/><path d="m368.45 482h-192.8c-9.448 0-17.133-7.647-17.133-17.133 0-9.477 7.675-17.133 17.133-17.133h192.8c8.284 0 15-6.716 15-15s-6.716-15-15-15h-192.8c-25.749 0-47.133 20.8-47.133 47.133 0 25.803 20.852 47.133 47.133 47.133h192.8c8.284 0 15-6.716 15-15s-6.716-15-15-15z" fill="#ffaf41"/><path d="m368.45 447.733c8.284 0 15-6.716 15-15s-6.716-15-15-15h-112.466v30z" fill="#ff8214"/><path d="m383.45 497c0-8.284-6.716-15-15-15h-112.466v30h112.466c8.284 0 15-6.716 15-15z" fill="#ff8214"/><path d="m497 270.879c-8.284 0-15-6.716-15-15 0-60.329-23.52-117.071-66.227-159.773-5.857-5.857-5.858-15.355-.001-21.213s15.354-5.859 21.214-.001c48.373 48.368 75.014 112.644 75.014 180.987 0 8.284-6.716 15-15 15z" fill="#230519"/><path d="m15 270.879c-8.284 0-15-6.716-15-15 0-68.334 26.641-132.609 75.014-180.986 5.857-5.857 15.355-5.858 21.213 0 5.858 5.857 5.858 15.355 0 21.213-42.707 42.71-66.227 99.452-66.227 159.773 0 8.284-6.716 15-15 15z" fill="#4b0a37"/><path d="m437.018 74.859c-99.815-99.813-262.222-99.812-362.036 0-5.852 5.852-5.859 15.354 0 21.213l45.445 45.443c5.853 5.853 15.355 5.858 21.213-.001 63.159-63.159 165.559-63.159 228.718 0 7.46 7.46 17.187 4.027 21.214.001l45.445-45.443c5.854-5.851 5.859-15.355.001-21.213z" fill="#6e0a50"/><path d="m64.267 415.479h-49.267c-8.284 0-15-6.716-15-15v-144.6c0-8.284 6.716-15 15-15h49.267c8.284 0 15 6.716 15 15v144.6c0 8.284-6.716 15-15 15z" fill="#41d7ff"/><path d="m255.984 0v94.146c41.395-.004 82.792 15.786 114.375 47.369 7.459 7.46 17.187 4.027 21.214.001l45.445-45.443c5.853-5.852 5.858-15.356 0-21.213-49.912-49.911-115.474-74.864-181.034-74.86z" fill="#4b0a37"/><path d="m15 415.479h49.267c8.284 0 15-6.716 15-15v-72.179h-79.267v72.178c0 8.285 6.716 15.001 15 15.001z" fill="#00b9e1"/><path d="m79.267 431.545c-8.284 0-15-6.716-15-15v-176.733c0-8.284 6.716-15 15-15s15 6.716 15 15v176.733c0 8.285-6.716 15-15 15z" fill="#00b9e1"/><path d="m79.267 431.545c8.284 0 15-6.716 15-15v-88.245h-30v88.245c0 8.285 6.715 15 15 15z" fill="#0097cd"/><path d="m447.733 415.479h49.267c8.284 0 15-6.716 15-15v-144.6c0-8.284-6.716-15-15-15h-49.267c-8.284 0-15 6.716-15 15v144.6c0 8.284 6.716 15 15 15z" fill="#41d7ff"/><path d="m497 415.479h-49.267c-8.284 0-15-6.716-15-15v-72.179h79.267v72.178c0 8.285-6.716 15.001-15 15.001z" fill="#00b9e1"/><path d="m432.733 431.545c8.284 0 15-6.716 15-15v-176.733c0-8.284-6.716-15-15-15s-15 6.716-15 15v176.733c0 8.285 6.716 15 15 15z" fill="#00b9e1"/><path d="m432.733 431.545c-8.284 0-15-6.716-15-15v-88.245h30v88.245c0 8.285-6.715 15-15 15z" fill="#0097cd"/></g></svg>