<svg height="512pt" viewBox="0 0 512 512" width="512pt" xmlns="http://www.w3.org/2000/svg"><path d="m64 0h384c35.347656 0 64 28.652344 64 64v384c0 35.347656-28.652344 64-64 64h-384c-35.347656 0-64-28.652344-64-64v-384c0-35.347656 28.652344-64 64-64zm0 0" fill="#ffc32c"/><path d="m256 76.929688-176 114.382812v113.375l176 114.382812 176-114.382812v-113.375zm115.519531 171.070312 28.480469-18.511719v37.023438zm15.121094-48-44.480469 28.910156-86.160156-55.980468-86.160156 56-44.480469-28.929688 130.640625-84.929688zm-73.839844 48-56.800781 36.929688-56.800781-36.929688 56.800781-36.929688zm-172.320312 0-28.480469 18.511719v-37.023438zm-15.121094 48 44.480469-28.910156 86.160156 55.980468 86.160156-56 44.480469 28.914063-130.640625 84.945313zm0 0" fill="#fff"/></svg>