<svg height="512" viewBox="0 0 64 64" width="512" xmlns="http://www.w3.org/2000/svg"><g id="reseach"><path d="m59 15h-54a2 2 0 0 0 -2 2v28h58v-28a2 2 0 0 0 -2-2z" fill="#00d7df"/><path d="m61 17v28h-4v-28a2.006 2.006 0 0 0 -2-2h4a2.006 2.006 0 0 1 2 2z" fill="#009698"/><path d="m61 45v4a2.006 2.006 0 0 1 -2 2h-54a2.006 2.006 0 0 1 -2-2v-4z" fill="#57a4ff"/><path d="m50 28a6 6 0 0 1 6 6 6.009 6.009 0 0 1 -6 6 6 6 0 0 1 0-12z" fill="#c6c5ca"/><path d="m56 34a6.009 6.009 0 0 1 -6 6 6.006 6.006 0 0 1 -5.47-3.53 6 6 0 0 0 7.94-7.94 6.006 6.006 0 0 1 3.53 5.47z" fill="#898890"/><g fill="#ffde55"><path d="m46 19v5c0 1.66-4.03 3-9 3s-9-1.34-9-3v-6c0 1.66 4.03 3 9 3s9-1.34 9-3z"/><path d="m46 15v3c0 1.66-4.03 3-9 3s-9-1.34-9-3v-6c0 1.66 4.03 3 9 3s9-1.34 9-3z"/><path d="m46 6v6c0 1.66-4.03 3-9 3s-9-1.34-9-3v-6c0 1.66 4.03 3 9 3s9-1.34 9-3z"/></g><path d="m44 57a2.006 2.006 0 0 1 2 2 2.015 2.015 0 0 1 -2 2h-24a2.006 2.006 0 0 1 -2-2 2.015 2.015 0 0 1 2-2z" fill="#c6c5ca"/><ellipse cx="37" cy="6" fill="#ffcd00" rx="9" ry="3"/><path d="m26 51h12v6h-12z" fill="#57565c"/><path d="m30 35a3 3 0 0 1 0 6h-20a3 3 0 0 1 0-6v-1a5 5 0 0 1 5-5 5.466 5.466 0 0 1 3 1 5.854 5.854 0 0 1 5-3 5.984 5.984 0 0 1 5.65 8z" fill="#57a4ff"/><path d="m33 38a3 3 0 0 1 -3 3h-4a3 3 0 0 0 0-6h-1.35a5.968 5.968 0 0 0 -3.6-7.63 5.207 5.207 0 0 1 1.95-.37 5.984 5.984 0 0 1 5.65 8h1.35a3 3 0 0 1 3 3z" fill="#006df0"/><path d="m24 19-1.98.49 1.05 1.75-2.83 2.83-1.75-1.05-.49 1.98h-4l-.49-1.98-1.75 1.05-2.83-2.83 1.05-1.75-1.98-.49v-4l1.98-.49-1.05-1.75 2.83-2.83 1.75 1.05.49-1.98h4l.49 1.98 1.75-1.05 2.83 2.83-1.05 1.75 1.98.49z" fill="#c0ab91"/><circle cx="16" cy="17" fill="#ffde55" r="3"/><path d="m46 6v6c0 1.66-4.03 3-9 3-.69 0-1.36-.03-2-.08 4.01-.3 7-1.49 7-2.92v-3.5c2.41-.54 4-1.46 4-2.5z" fill="#ffcd00"/><path d="m46 12v6c0 1.66-4.03 3-9 3-.69 0-1.36-.03-2-.08 4.01-.3 7-1.49 7-2.92v-3.5c2.41-.54 4-1.46 4-2.5z" fill="#ffcd00"/><path d="m46 18v6c0 1.66-4.03 3-9 3-.69 0-1.36-.03-2-.08 4.01-.3 7-1.49 7-2.92v-3.5c2.41-.54 4-1.46 4-2.5z" fill="#ffcd00"/><path d="m46 6c0 1.66-4.03 3-9 3-.69 0-1.36-.03-2-.08 4.01-.3 7-1.49 7-2.92s-2.99-2.62-7-2.92c.64-.05 1.31-.08 2-.08 4.97 0 9 1.34 9 3z" fill="#ddb200"/><path d="m46 59a2.015 2.015 0 0 1 -2 2h-4a2.015 2.015 0 0 0 2-2 2.006 2.006 0 0 0 -2-2h4a2.006 2.006 0 0 1 2 2z" fill="#898890"/><path d="m61 45v4a2.006 2.006 0 0 1 -2 2h-4a2.006 2.006 0 0 0 2-2v-4z" fill="#006df0"/><path d="m34 51h4v6h-4z" fill="#2d2d30"/><path d="m10 42h20a4 4 0 0 0 0-8h-.073a6.846 6.846 0 0 0 .073-1 7.008 7.008 0 0 0 -7-7 6.654 6.654 0 0 0 -5.3 2.668 6.3 6.3 0 0 0 -2.7-.668 6.006 6.006 0 0 0 -6 6v.126a4 4 0 0 0 1 7.874zm0-6a1 1 0 0 0 1-1v-1a4 4 0 0 1 4-4 4.483 4.483 0 0 1 2.426.819 1 1 0 0 0 1.43-.3 4.842 4.842 0 0 1 4.144-2.519 4.988 4.988 0 0 1 4.709 6.667 1 1 0 0 0 .942 1.333h1.349a2 2 0 0 1 0 4h-20a2 2 0 0 1 0-4z"/><path d="m16 21a4 4 0 1 0 -4-4 4 4 0 0 0 4 4zm0-6a2 2 0 1 1 -2 2 2 2 0 0 1 2-2z"/><path d="m50 41a6.958 6.958 0 0 0 4.184-1.4l3.109 3.108 1.414-1.414-3.107-3.109a6.991 6.991 0 1 0 -5.6 2.815zm0-12a5 5 0 1 1 -5 5 5.006 5.006 0 0 1 5-5z"/><path d="m55 24v3h2v-3a5.006 5.006 0 0 0 -5-5h-3v2h3a3 3 0 0 1 3 3z"/><path d="m17 5a1 1 0 0 1 1-1h8v-2h-8a3 3 0 0 0 -3 3v1h2z"/><path d="m59 14h-12v-8c0-2.75-5.18-4-10-4s-10 1.25-10 4v8h-2.88l-.55-.14.36-.59a1 1 0 0 0 -.15-1.22l-2.83-2.83a1 1 0 0 0 -1.22-.15l-.59.36-.17-.67a1 1 0 0 0 -.97-.76h-4a1 1 0 0 0 -.97.76l-.17.67-.59-.36a1.014 1.014 0 0 0 -1.22.15l-2.83 2.83a1 1 0 0 0 -.15 1.22l.36.59-.55.14h-2.88a3.009 3.009 0 0 0 -3 3v32a3.009 3.009 0 0 0 3 3h20v4h-5a3 3 0 0 0 0 6h24a3 3 0 0 0 0-6h-5v-4h20a3.009 3.009 0 0 0 3-3v-32a3.009 3.009 0 0 0 -3-3zm-22-10c5.25 0 8 1.49 8 2s-2.75 2-8 2-8-1.49-8-2 2.75-2 8-2zm-8 4.52a18.866 18.866 0 0 0 8 1.48 18.866 18.866 0 0 0 8-1.48v3.48c0 .51-2.75 2-8 2s-8-1.49-8-2zm0 6a18.866 18.866 0 0 0 8 1.48 18.866 18.866 0 0 0 8-1.48v3.48c0 .51-2.75 2-8 2s-8-1.49-8-2zm0 6a18.866 18.866 0 0 0 8 1.48 18.866 18.866 0 0 0 8-1.48v3.48c0 .51-2.75 2-8 2s-8-1.49-8-2zm-20-4.74 1.22-.3a1.007 1.007 0 0 0 .68-.59.989.989 0 0 0 -.07-.9l-.64-1.08 1.72-1.72 1.08.64a.989.989 0 0 0 .9.07 1.007 1.007 0 0 0 .59-.68l.3-1.22h2.44l.3 1.22a1.007 1.007 0 0 0 .59.68.989.989 0 0 0 .9-.07l1.08-.64 1.72 1.72-.64 1.08a.989.989 0 0 0 -.07.9 1.007 1.007 0 0 0 .68.59l1.22.3v2.44l-1.22.3a1.007 1.007 0 0 0 -.68.59.989.989 0 0 0 .07.9l.64 1.08-1.72 1.72-1.08-.65a1.019 1.019 0 0 0 -.9-.06 1.007 1.007 0 0 0 -.59.68l-.3 1.22h-2.44l-.3-1.22a1.007 1.007 0 0 0 -.59-.68 1.019 1.019 0 0 0 -.9.06l-1.08.65-1.72-1.72.64-1.08a.989.989 0 0 0 .07-.9 1.007 1.007 0 0 0 -.68-.59l-1.22-.3zm35 42.22a1 1 0 0 1 0 2h-24a1 1 0 0 1 0-2zm-17-2v-4h10v4zm33-7a1 1 0 0 1 -1 1h-54a1 1 0 0 1 -1-1v-3h56zm0-5h-56v-27a1 1 0 0 1 1-1h2v3a1 1 0 0 0 .76.97l.67.17-.36.59a1 1 0 0 0 .15 1.22l2.83 2.83a1.014 1.014 0 0 0 1.22.15l.59-.36.17.67a1 1 0 0 0 .97.76h4a1 1 0 0 0 .97-.76l.17-.67.59.36a1.014 1.014 0 0 0 1.22-.15l2.83-2.83a1 1 0 0 0 .15-1.22l-.36-.59.67-.17a1 1 0 0 0 .76-.97v-3h2v8c0 2.75 5.18 4 10 4s10-1.25 10-4v-8h12a1 1 0 0 1 1 1z"/><path d="m49 33h2v2h-2z"/><path d="m23 31h2v2h-2z"/></g></svg>