<?xml version="1.0" encoding="iso-8859-1"?>
<!-- Generator: Adobe Illustrator 19.0.0, SVG Export Plug-In . SVG Version: 6.00 Build 0)  -->
<svg xmlns="http://www.w3.org/2000/svg" xmlns:xlink="http://www.w3.org/1999/xlink" version="1.1" id="Layer_1" x="0px" y="0px" viewBox="0 0 512.066 512.066" style="enable-background:new 0 0 512.066 512.066;" xml:space="preserve" width="512" height="512">
<g>
	<g>
		<g id="XMLID_282_">
			<g>
				<g>
					<path style="fill:#FCF5DF;" d="M215.209,146.72v269.6c0,6.04-4.89,10.93-10.93,10.93H18.429c-6.04,0-10.93-4.89-10.93-10.93       v-269.6c0-6.04,4.89-10.93,10.93-10.93h185.85C210.319,135.79,215.209,140.68,215.209,146.72z"/>
				</g>
			</g>
		</g>
		<path style="fill:#F3E7C6;" d="M110.434,416.319v-269.6c0-6.04,4.89-10.93,10.93-10.93H18.429c-6.04,0-10.93,4.89-10.93,10.93    v269.6c0,6.04,4.89,10.93,10.93,10.93h102.935C115.324,427.25,110.434,422.359,110.434,416.319z"/>
		<g id="XMLID_284_">
			<g>
				<g>
					<path style="fill:#FCF5DF;" d="M378.289,200.45v213.98c0,6.04-4.89,10.93-10.93,10.93h-108.14c-6.04,0-10.93-4.89-10.93-10.93       V200.45c0-6.04,4.89-10.93,10.93-10.93h108.14C373.399,189.52,378.289,194.41,378.289,200.45z"/>
				</g>
			</g>
		</g>
		<path style="fill:#F3E7C6;" d="M308.789,414.43v-213.98c0-6.04,4.89-10.93,10.93-10.93h-60.5c-6.04,0-10.93,4.89-10.93,10.93    v213.98c0,6.04,4.89,10.93,10.93,10.93h60.5C313.679,425.359,308.789,420.47,308.789,414.43z"/>
		<g id="XMLID_285_">
			<g>
				<g>
					<path style="fill:#FCF5DF;" d="M504.569,272.45v144.17c0,6.03-4.9,10.93-10.93,10.93h-75.42c-6.04,0-10.93-4.9-10.93-10.93       V272.45c0-6.04,4.89-10.93,10.93-10.93h75.42C499.669,261.52,504.569,266.41,504.569,272.45z"/>
				</g>
			</g>
		</g>
		<path style="fill:#F3E7C6;" d="M457.399,416.62v-144.17c0-6.04,4.89-10.93,10.93-10.93h-50.11c-6.04,0-10.93,4.89-10.93,10.93    v144.17c0,6.03,4.89,10.93,10.93,10.93h50.11C462.289,427.549,457.399,422.649,457.399,416.62z"/>
		<g id="XMLID_286_">
			<g>
				<g>
					<path style="fill:#C5D65C;" d="M189.289,163.74v69.56c0,2.33-1.89,4.22-4.22,4.22H37.509c-2.33,0-4.22-1.89-4.22-4.22v-69.56       c0-2.33,1.89-4.22,4.22-4.22h147.56C187.399,159.52,189.289,161.41,189.289,163.74z"/>
				</g>
			</g>
		</g>
		<g id="XMLID_289_">
			<g>
				<g>
					<path style="fill:#F3D064;" d="M189.289,368.76v29.52c0,2.34-1.9,4.24-4.24,4.24H37.529c-2.34,0-4.24-1.9-4.24-4.24v-29.52       c0-2.34,1.9-4.24,4.24-4.24h147.52C187.389,364.52,189.289,366.42,189.289,368.76z"/>
				</g>
			</g>
		</g>
		<g id="XMLID_287_">
			<g>
				<g>
					<path style="fill:#7CA1D8;" d="M120.289,266.79v67.46c0,2.91-2.36,5.27-5.27,5.27h-76.46c-2.91,0-5.27-2.36-5.27-5.27v-67.46       c0-2.91,2.36-5.27,5.27-5.27h76.46C117.929,261.52,120.289,263.88,120.289,266.79z"/>
				</g>
			</g>
		</g>
		<g id="XMLID_288_">
			<g>
				<g>
					<path style="fill:#FF395E;" d="M189.289,265.46v70.12c0,2.18-1.76,3.94-3.94,3.94h-38.12c-2.18,0-3.94-1.76-3.94-3.94v-70.12       c0-2.18,1.76-3.94,3.94-3.94h38.12C187.529,261.52,189.289,263.28,189.289,265.46z"/>
				</g>
			</g>
		</g>
		<g id="XMLID_290_">
			<g>
				<g>
					<path style="fill:#7CA1D8;" d="M354.289,216.22v28.6c0,0.94-0.76,1.7-1.7,1.7h-78.6c-0.94,0-1.7-0.76-1.7-1.7v-28.6       c0-0.94,0.76-1.7,1.7-1.7h78.6C353.529,214.52,354.289,215.28,354.289,216.22z"/>
				</g>
			</g>
		</g>
		<g id="XMLID_291_">
			<g>
				<g>
					<path style="fill:#FF395E;" d="M354.289,272.47v128.1c0,1.08-0.87,1.95-1.95,1.95h-78.1c-1.08,0-1.95-0.87-1.95-1.95v-128.1       c0-1.08,0.87-1.95,1.95-1.95h78.1C353.419,270.52,354.289,271.39,354.289,272.47z"/>
				</g>
			</g>
		</g>
		<g id="XMLID_292_">
			<g>
				<g>
					<path style="fill:#F3D064;" d="M480.289,288.25v41.54c0,0.95-0.78,1.73-1.73,1.73h-44.54c-0.95,0-1.73-0.78-1.73-1.73v-41.54       c0-0.95,0.78-1.73,1.73-1.73h44.54C479.509,286.52,480.289,287.3,480.289,288.25z"/>
				</g>
			</g>
		</g>
		<g id="XMLID_293_">
			<g>
				<g>
					<path style="fill:#C5D65C;" d="M480.289,360.13v40.78c0,0.89-0.72,1.61-1.61,1.61h-44.78c-0.89,0-1.61-0.72-1.61-1.61v-40.78       c0-0.89,0.72-1.61,1.61-1.61h44.78C479.569,358.52,480.289,359.24,480.289,360.13z"/>
				</g>
			</g>
		</g>
	</g>
	<g>
		<path style="fill:#000100;" d="M204.28,128.288H18.43C8.268,128.288,0,136.556,0,146.717v269.605    c0,10.161,8.268,18.429,18.43,18.429H204.28c10.162,0,18.43-8.268,18.43-18.429V146.717    C222.71,136.556,214.442,128.288,204.28,128.288z M207.71,416.322c0,1.891-1.539,3.429-3.43,3.429H18.43    c-1.891,0-3.43-1.538-3.43-3.429V146.717c0-1.891,1.539-3.429,3.43-3.429H204.28c1.891,0,3.43,1.538,3.43,3.429V416.322z"/>
		<path style="fill:#000100;" d="M367.359,182.02H259.219c-10.162,0-18.43,8.268-18.43,18.43v213.979    c0,10.162,8.268,18.43,18.43,18.43h108.141c10.162,0,18.43-8.268,18.43-18.43V200.449    C385.789,190.287,377.521,182.02,367.359,182.02z M370.789,414.429c0,1.892-1.539,3.43-3.43,3.43H259.219    c-1.891,0-3.43-1.538-3.43-3.43V200.449c0-1.892,1.539-3.43,3.43-3.43h108.141c1.891,0,3.43,1.538,3.43,3.43V414.429z"/>
		<path style="fill:#000100;" d="M493.637,254.02h-75.418c-10.162,0-18.43,8.268-18.43,18.43v144.168    c0,10.162,8.268,18.43,18.43,18.43h75.418c10.162,0,18.43-8.268,18.43-18.43V272.449    C512.066,262.287,503.799,254.02,493.637,254.02z M497.066,416.617c0,1.892-1.539,3.43-3.43,3.43h-75.418    c-1.891,0-3.43-1.538-3.43-3.43V272.449c0-1.892,1.539-3.43,3.43-3.43h75.418c1.891,0,3.43,1.538,3.43,3.43V416.617z"/>
		<path style="fill:#000100;" d="M154.289,123.02c4.142,0,7.5-3.357,7.5-7.5V95.019c0-1.653,1.345-2.999,2.999-2.999H270.79    c1.654,0,2.999,1.346,2.999,2.999v44.395l-8.197-8.197c-2.929-2.928-7.678-2.928-10.606,0c-2.929,2.93-2.929,7.678,0,10.607l21,21    c0.18,0.18,0.368,0.35,0.563,0.508c0.187,0.153,0.381,0.295,0.579,0.427c0.006,0.004,0.012,0.009,0.018,0.013    c1.03,0.684,2.193,1.086,3.378,1.207c0.013,0.001,0.025,0.004,0.038,0.006c0.242,0.023,0.484,0.035,0.727,0.035c0,0,0,0,0.001,0    s0,0,0.001,0c0.031,0,0.062-0.004,0.093-0.004c0.21-0.003,0.42-0.01,0.629-0.031c0.042-0.004,0.084-0.013,0.126-0.018    c0.2-0.023,0.399-0.049,0.597-0.088c0.022-0.004,0.044-0.012,0.067-0.016c0.219-0.045,0.437-0.098,0.652-0.162    c0.005-0.001,0.009-0.004,0.014-0.005c0.233-0.071,0.463-0.153,0.69-0.246c0,0,0.001,0,0.001,0c0.001,0,0.002-0.001,0.003-0.001    c0.31-0.128,0.61-0.284,0.904-0.456c0.057-0.033,0.113-0.065,0.168-0.1c0.281-0.174,0.555-0.363,0.815-0.577    c0.025-0.021,0.048-0.045,0.073-0.066c0.16-0.135,0.319-0.274,0.47-0.425l20-20c2.929-2.93,2.929-7.678,0-10.607    c-2.929-2.928-7.678-2.928-10.606,0l-7.197,7.197V95.019c0-9.925-8.074-17.999-17.999-17.999H164.788    c-9.925,0-17.999,8.074-17.999,17.999v20.501C146.789,119.662,150.147,123.02,154.289,123.02z"/>
		<path style="fill:#000100;" d="M336.289,174.02c4.142,0,7.5-3.357,7.5-7.5v-20.501c0-1.653,1.345-2.999,2.999-2.999h89.002    c1.654,0,2.999,1.346,2.999,2.999v70.395l-8.197-8.197c-2.929-2.928-7.678-2.928-10.606,0c-2.929,2.93-2.929,7.678,0,10.607l21,21    c0.18,0.18,0.368,0.35,0.563,0.508c0.187,0.153,0.381,0.295,0.579,0.427c0.006,0.004,0.012,0.009,0.018,0.013    c1.03,0.684,2.193,1.086,3.378,1.207c0.013,0.001,0.025,0.004,0.038,0.006c0.242,0.023,0.484,0.035,0.727,0.035c0,0,0,0,0.001,0    s0,0,0.001,0c0.031,0,0.062-0.004,0.093-0.004c0.21-0.003,0.42-0.01,0.629-0.031c0.042-0.004,0.084-0.013,0.126-0.018    c0.2-0.023,0.399-0.049,0.597-0.088c0.022-0.004,0.044-0.012,0.067-0.016c0.219-0.045,0.437-0.098,0.652-0.162    c0.005-0.001,0.009-0.004,0.014-0.005c0.233-0.071,0.463-0.153,0.69-0.246c0,0,0.001,0,0.001,0c0.001,0,0.002-0.001,0.003-0.001    c0.31-0.128,0.61-0.284,0.904-0.456c0.057-0.033,0.113-0.065,0.168-0.1c0.281-0.174,0.555-0.363,0.815-0.577    c0.025-0.021,0.048-0.045,0.073-0.066c0.16-0.135,0.319-0.274,0.47-0.425l20-20c2.929-2.93,2.929-7.678,0-10.607    c-2.929-2.928-7.678-2.928-10.606,0l-7.197,7.197v-70.394c0-9.925-8.074-17.999-17.999-17.999h-89.002    c-9.925,0-17.999,8.074-17.999,17.999v20.501C328.789,170.662,332.147,174.02,336.289,174.02z"/>
		<path style="fill:#000100;" d="M189.289,152.02h-156c-4.142,0-7.5,3.357-7.5,7.5v78c0,4.143,3.358,7.5,7.5,7.5h90.75    c4.142,0,7.5-3.357,7.5-7.5s-3.358-7.5-7.5-7.5h-83.25v-63h141v63h-27.75c-4.142,0-7.5,3.357-7.5,7.5s3.358,7.5,7.5,7.5h35.25    c4.142,0,7.5-3.357,7.5-7.5v-78C196.789,155.377,193.431,152.02,189.289,152.02z"/>
		<path style="fill:#000100;" d="M189.289,357.02h-156c-4.142,0-7.5,3.357-7.5,7.5v38c0,4.143,3.358,7.5,7.5,7.5h156    c4.142,0,7.5-3.357,7.5-7.5v-38C196.789,360.377,193.431,357.02,189.289,357.02z M181.789,395.02h-141v-23h141V395.02z"/>
		<path style="fill:#000100;" d="M33.289,347.02h87c4.142,0,7.5-3.357,7.5-7.5v-78c0-4.143-3.358-7.5-7.5-7.5h-87    c-4.142,0-7.5,3.357-7.5,7.5v78C25.789,343.662,29.147,347.02,33.289,347.02z M40.789,269.02h72v63h-72V269.02z"/>
		<path style="fill:#000100;" d="M189.289,254.02h-46c-4.142,0-7.5,3.357-7.5,7.5v78c0,4.143,3.358,7.5,7.5,7.5h46    c4.142,0,7.5-3.357,7.5-7.5v-78C196.789,257.377,193.431,254.02,189.289,254.02z M181.789,332.02h-31v-63h31V332.02z"/>
		<path style="fill:#000100;" d="M349.724,207.02h-72.869c-6.653,0-12.065,5.412-12.065,12.065v22.869    c0,6.653,5.413,12.065,12.065,12.065h72.869c6.653,0,12.065-5.412,12.065-12.065v-22.869    C361.789,212.432,356.376,207.02,349.724,207.02z M346.789,239.02h-67v-17h67V239.02z"/>
		<path style="fill:#000100;" d="M348.797,263.02h-71.017c-7.164,0-12.992,5.828-12.992,12.991v20.509c0,4.143,3.358,7.5,7.5,7.5    s7.5-3.357,7.5-7.5v-18.5h67v117h-67v-68.5c0-4.143-3.358-7.5-7.5-7.5s-7.5,3.357-7.5,7.5v70.509    c0,7.163,5.828,12.991,12.992,12.991h71.017c7.164,0,12.992-5.828,12.992-12.991V276.011    C361.789,268.848,355.961,263.02,348.797,263.02z"/>
		<path style="fill:#000100;" d="M472.857,279.02h-33.137c-8.233,0-14.932,6.698-14.932,14.932v30.137    c0,8.233,6.698,14.932,14.932,14.932h33.137c8.233,0,14.932-6.698,14.932-14.932v-30.137    C487.789,285.718,481.091,279.02,472.857,279.02z M472.789,324.02h-33v-30h33V324.02z"/>
		<path style="fill:#000100;" d="M472.857,351.02h-33.137c-8.233,0-14.932,6.698-14.932,14.932v29.137    c0,8.233,6.698,14.932,14.932,14.932h33.137c8.233,0,14.932-6.698,14.932-14.932v-29.137    C487.789,357.718,481.091,351.02,472.857,351.02z M472.789,395.02h-33v-29h33V395.02z"/>
	</g>
</g>















</svg>
